<svg xmlns="http://www.w3.org/2000/svg" width="707" height="188" xmlns:v="https://vecta.io/nano"><style><![CDATA[.B{fill:#99c6d6}.C{fill:#8b8a8a}.D{fill:#0f4267}]]></style><path d="M339.283 1.897c.979-.261 1.663-.148 2.567.273 1.072.499 2.085 1.433 2.478 2.57.35 1.013.278 2.378-.219 3.33-.728 1.398-1.784 1.888-3.209 2.354-.754.077-1.524.143-2.251-.116-1.085-.387-2.194-1.323-2.689-2.369-.395-.835-.636-2.326-.276-3.195.611-1.476 2.237-2.243 3.599-2.848zm-.603 13.109c.656-.251 1.545-.22 2.22-.023 1.185.345 2.593 1.275 3.176 2.388 1.001 1.914.844 27.743-.038 30.237-.504 1.426-1.468 2.21-2.793 2.828-.971.294-2.161.097-3.107-.227-.828-.284-1.516-1.004-1.896-1.781-.937-1.916-.699-4.395-.707-6.469l-.021-11.22-.094-8.571c.003-1.364-.109-3.135.361-4.426.523-1.434 1.587-2.106 2.899-2.736z" class="C"/><path d="M11.104 46.294c2.037-.005 4.495.209 6.31 1.177 2.63 1.403 4.561 4.726 5.368 7.489 1.029 3.526.313 7.766-1.472 10.925-1.63 2.883-4.111 4.301-7.234 5.162-1.535-.015-3.464-.179-4.847-.876-2.989-1.505-5.41-4.159-6.461-7.35-1.141-3.464-.813-7.14.861-10.363 1.591-3.062 4.232-5.126 7.477-6.164z" class="B"/><path d="M481.699 15.006l.111-.041c.826-.272 2.122-.25 2.906.152 1.549.794 2.096 2.78 2.606 4.305 1.607-1.809 3.351-3.895 5.817-4.472 2.245-.526 5.572.106 7.489 1.369 1 .659 2.108 1.854 2.314 3.075.183 1.081-.3 1.931-.911 2.774-2.809 1.689-4.401.445-7.374.166-1.389-.131-3.001.017-4.104.965-2.492 2.142-2.758 6.773-3.027 9.827l.007 8.712c.001 1.636.148 3.546-.221 5.147-.267 1.157-1.107 2.263-2.117 2.88-1.113.679-2.902.818-4.138.459-.934-.271-1.492-.903-1.92-1.736-.679-1.32-.691-3.118-.773-4.571-.216-3.869.007-7.711.035-11.58.032-4.422-.663-10.447.667-14.598.47-1.467 1.292-2.157 2.633-2.833zm-123.648 0c.929-.228 2.188.064 3.002.559 1.546.939 1.788 2.992 2.179 4.623 3.107-2.48 6.341-5.076 10.478-5.34 2.995-.192 6.843.797 9.092 2.805 2.443 2.181 3.361 4.868 3.52 8.066l.173 13.23c.008 2.575.259 5.637-.308 8.143A4.75 4.75 0 0 1 385 49.325c-.821.887-1.693 1.354-2.914 1.386-1.095.028-2.165-.364-2.951-1.137-2.505-2.464-1.495-13.168-1.497-16.828-.042-2.321.01-5.135-.739-7.34-.45-1.327-1.027-2.818-2.387-3.444-1.198-.551-4.499-.432-5.715.038-7.178 2.775-5.287 14.716-5.283 20.858.001 1.626.214 3.641-.479 5.138-.503 1.085-1.297 1.964-2.439 2.383-.983.36-2.028.322-2.979-.119-.996-.462-1.768-1.198-2.127-2.246-.794-2.313-.652-4.985-.658-7.398l-.018-11.428c-.031-3.003-.854-9.61.499-12.204.655-1.256 1.463-1.563 2.738-1.977zm-104.214 0c1.186-.294 2.367-.121 3.407.546 1.428.916 1.874 3.192 2.244 4.717 1.351-1.398 2.65-2.732 4.367-3.682 3.67-2.03 7.311-2.113 11.262-.943 2.507.742 4.59 2.566 5.813 4.862.72 1.351 1.112 2.842 1.31 4.354.609 4.631.286 9.741.324 14.424.021 2.493.435 5.931-.322 8.283-.366 1.135-1.265 2.245-2.349 2.782-.914.453-2.23.512-3.189.171s-1.842-1.102-2.283-2.02l-.078-.167c-.863-1.816-.599-4.233-.613-6.206l-.061-9.757c-.106-2.158-.149-4.401-.603-6.517-.319-1.487-1.125-3.012-2.438-3.839-1.306-.822-3.252-.792-4.705-.441-8.538 2.063-6.373 14.961-6.343 21.395.009 1.929.28 4.142-.783 5.843-1.448 1.32-2.564 1.884-4.546 1.802-1.111-.492-1.937-1.049-2.543-2.132-1.89-3.378-1.022-13.772-1.033-17.98-.011-3.961-.602-9.182.544-12.939.45-1.476 1.353-1.882 2.618-2.557z" class="C"/><path d="M211.407 138.817c.484-.118.813-.072 1.286.027-1.012 2.663-2.88 5.448-4.617 7.705-5.732 7.445-14.813 12.627-24.147 13.83-9.864 1.272-19.544-2.054-27.3-8.008-2.089-1.764-3.83-3.862-5.404-6.083l10.914-1.561c2.257-.365 5.466-1.256 7.736-.933.805.114 1.936 1.06 2.629 1.504 4.848 3.104 9.189 4.325 15.004 3.695.902-.098 2.368-1.63 2.989-2.277 2.104-2.193 4.062-4.825 6.925-6.025 4.15-1.739 9.522-1.62 13.985-1.874z" class="B"/><path d="M652.009 15.006c.855-.237 1.512-.32 2.348.049 3.336 1.473 8.854 21.743 10.444 26.113 1.03-1.936 1.638-4.367 2.356-6.448l4.739-13.603c.627-1.625 1.65-4.787 3.226-5.733.795-.477 2.006-.724 2.896-.433 1.17.383 2.048 1.261 2.573 2.347.359 2.535-.895 5.351-1.689 7.742l-7.57 19.696c-1.483 4.374-2.806 9.28-5.309 13.188-1.588 2.478-3.607 4.88-6.631 5.517-2.591.545-8.298.752-10.517-.791-.709-.493-1.118-1.438-1.218-2.281-.118-.994.238-1.659.829-2.424 1.539-1.234 5.408-.61 7.378-.606 1.793-1.511 3.041-3.636 4.122-5.682.174-.33.744-1.164.779-1.503.064-.623-1.597-3.773-1.911-4.519l-6.902-17.032c-.94-2.323-3.946-8.254-3.159-10.67.496-1.521 1.864-2.28 3.216-2.925zm-427.855-.399l.412-.026c4.682-.218 9.13.881 12.628 4.088 2.912 2.67 4.907 6.865 5.026 10.825.042 1.401-.456 2.73-1.424 3.743-2.344 2.452-19.963 1.651-23.97 1.642.533 2.298 1.12 4.815 2.519 6.753 1.275 1.766 3.173 3.012 5.339 3.362 5.765.93 8.738-3.033 12.94-6.026l1.61-.254c1.324.599 1.581.749 2.325 1.991.205 1.337.013 2.286-.78 3.4-2.406 3.378-6.901 5.696-10.966 6.373-4.961.825-10.587-.144-14.686-3.126-3.689-2.683-5.903-7.054-6.554-11.497-.767-5.244.469-11.231 3.691-15.493 2.881-3.809 7.375-5.141 11.89-5.754zm-.698 6.136c-4.27 2.617-5.011 4.613-6.44 9.299l11.257-.005 5.7-.023c-.552-2.754-.971-6.116-3.49-7.821-2.037-1.379-4.623-1.84-7.027-1.45zm186.673-6.158l2.499-.083c4.414-.034 8.613 1.73 11.752 4.841 2.667 2.642 4.503 6.394 4.493 10.189-.004 1.33-.284 2.658-1.28 3.607-3.132 2.986-19.54 1.976-24.157 1.831.555 1.951.975 4.206 2.115 5.903 1.21 1.804 3.071 3.465 5.287 3.855 6.019 1.058 8.41-2.456 12.804-5.536l1.49-.446c.542.067 1.165.151 1.631.455.662.432 1.185 1.073 1.335 1.861.209 1.095-.246 2.026-.84 2.911-2.355 3.515-6.317 5.585-10.404 6.388-4.867.955-11.006-.06-15.124-2.866-4.04-2.753-5.799-6.883-6.665-11.516-.848-4.536.047-10.431 2.681-14.229 3.044-4.388 7.268-6.259 12.383-7.165zm.386 6.15c-2.148.97-4.532 2.167-5.424 4.511l-1.401 4.788 10.999.007 5.766-.002c-.714-2.871-1.112-6.284-3.858-7.96-1.858-1.134-3.94-1.42-6.082-1.344zm40.055-6.178l.798-.056c5.271-.153 10.113.937 14.056 4.717a14.62 14.62 0 0 1 4.383 10.276c.003 1.345-.342 2.879-1.329 3.844-3.041 2.973-19.257 1.717-24.072 1.652.743 2.599 1.359 5.042 3.084 7.189 1.295 1.613 3.457 2.636 5.488 2.852 4.912.522 7.848-2.782 11.337-5.621l1.898-.684c.491.076 1.149.153 1.578.413.745.45 1.204 1.034 1.384 1.892.219 1.041-.252 2.216-.81 3.073-2.264 3.477-6.319 5.491-10.282 6.297-4.735.963-11.044-.039-15.049-2.718-3.542-2.369-5.773-5.909-6.58-10.092-1.095-5.668-.573-11.639 2.749-16.517 2.76-4.053 6.765-5.612 11.367-6.515zm.689 6.156c-2.377 1.008-4.35 2.305-5.34 4.812l-1.384 4.503 10.89-.015 5.964.01c-.737-3.108-1.259-6.393-4.188-8.212-1.742-1.081-3.941-1.236-5.942-1.098zm69.063-6.156c4.716-.219 9.751.22 13.488 3.436 3.2 2.753 5.461 6.582 5.76 10.844.108 1.534-.028 3.187-1.119 4.377-2.214 2.417-20.172 1.787-24.19 1.852.525 1.867 1.021 4.188 2.038 5.841 1.156 1.88 3.136 3.433 5.305 3.919 5.728 1.283 8.957-3.071 13.199-5.789l1.143-.329c1.288.221 1.822.656 2.681 1.613.348 1.327.319 2.349-.39 3.582-1.586 2.759-5.017 4.95-8.057 5.769-5.417 1.458-11.617 1.464-16.593-1.405-4.057-2.34-6.378-6.134-7.547-10.562-1.326-5.023-.555-10.957 2.096-15.438 2.886-4.879 6.96-6.386 12.186-7.709zm.692 6.182c-2.841 1.441-4.483 2.565-5.499 5.668l-1.213 3.629 10.252.004 6.6-.025c-.763-3.164-1.187-6.314-4.215-8.165-1.859-1.136-3.811-1.219-5.925-1.111z" class="C"/><path d="M293.149 133l5.781-.21c-3.295 7.56-7.289 14.539-13.73 19.88-7.035 5.834-16.131 8.361-25.167 7.512-10.454-.982-18.182-5.036-24.878-13.109-2.503-3.061-4.141-6.411-5.678-10.025l15.582-1.307c.352-.024 2.226-.29 2.452-.17.499.267 2.109 3.448 2.562 4.12 1.293 1.916 2.806 3.663 4.557 5.176 4.932 4.262 10.071 4.558 16.319 4.1 3.977-2.659 7.251-6.135 9.534-10.369.869-1.609 1.54-3.384 2.611-4.868l10.055-.73z" class="B"/><path d="M451.148 130.91l.29-.021c4.098-.051 8.295.425 12.411.518.68.016 3.407-.181 3.893.084.015.008.166.423.181.461 1.815 4.571 4.247 8.265 7.72 11.736 5.21 5.207 10.227 5.534 17.277 5.535 5.606-4.672 8.872-8.943 11.926-15.579 5.106-.341 10.393.332 15.493.675l-4.081 7.822c-3.591 5.515-7.631 9.914-13.254 13.442-7.258 4.554-17.918 6.016-26.203 4.107-8.885-2.046-16.771-7.363-21.629-15.156-1.943-3.116-3.638-6.606-4.726-10.117-.316-1.019-.724-2.094-.474-3.162l1.176-.345zm-77.433-.691l2.756-.115 5.599-.031c.322-.002 1.417-.112 1.657-.005.297.132 1.229 2.322 1.404 2.69 2.042 4.287 4.114 7.833 7.551 11.153 3.945 3.811 8.944 5.369 14.34 5.273.66-.012 1.912.079 2.503-.116.854-.282 1.994-1.25 2.689-1.815 3.736-3.034 6.662-7.529 8.532-11.935.538-1.268 1.049-3.844 1.944-4.772l15.354.204c-1.226 4.394-3.214 8.247-5.463 12.193l-1.454 2.254c-5.426 7.969-14.192 13.087-23.569 14.844-8.397 1.574-18.146-.142-25.225-5.005-8.318-5.716-14.159-14.73-16.009-24.646l7.391-.171z" class="D"/><path d="M612.39 1.552c.346-.099.672-.094 1.027-.056 1.224.134 2.173.705 2.939 1.656 1.504 1.869 1.172 4.803 1.157 7.077l-.325 9.731c3.909-2.761 7.792-5.255 12.814-5.153 3.618.074 7.257 1.824 9.717 4.427 3.499 3.702 4.318 9.155 4.146 14.053-.223 6.327-2.124 10.348-6.735 14.621-2.211 1.485-4.45 2.394-7.134 2.632-5.001.444-8.602-2.086-12.236-5.108l-.88 2.989c-.295.767-.825 1.378-1.591 1.699-1.113.467-2.6.687-3.741.208-.82-.345-1.581-.997-1.899-1.84-.921-2.442-.64-5.582-.651-8.163l.003-12.959-.007-14.456c.012-2.748-.318-6.796.859-9.304.53-1.13 1.4-1.659 2.537-2.055zm12.381 19.963c-2.778 1.028-4.335 2.132-5.596 4.857-1.547 3.344-1.777 8.89-.423 12.394.72 1.864 2.588 3.599 4.394 4.372 1.444.618 3.128 1.014 4.707.869 2.601-.993 4.741-2.598 5.903-5.207 1.673-3.754 1.417-9.04-.048-12.845-.63-1.635-2.294-3.581-3.924-4.266-1.498-.63-3.454-.461-5.013-.175zM576.075 1.552c1.016-.183 2.532.203 3.378.794.932.651 1.547 1.768 1.74 2.874.643 3.695.127 8.246.157 12.044.075 9.392.812 19.155-.115 28.487-.109 1.092-.273 2.256-.933 3.168-.726 1.002-1.711 1.544-2.93 1.721-1.005.146-1.961-.23-2.753-.833-1.448-1.101-1.783-3.037-2.02-4.731-2.238 1.838-4.56 4.001-7.308 5.013-3.573 1.317-7.632.311-10.969-1.227-.949-.512-1.789-1.155-2.594-1.872-3.413-3.041-5.004-7.827-5.245-12.3-.288-5.335.043-11.029 3.841-15.172 2.315-2.525 5.77-4.533 9.227-4.703 5.811-.286 9.024 1.414 13.208 5.21-.426-3.283-.229-6.689-.112-9.99.064-1.823-.004-3.898.62-5.626.534-1.476 1.426-2.203 2.808-2.859zm-14.434 19.891c-2.713 1.356-4.514 2.736-5.505 5.729-1.252 3.78-1.335 8.633.489 12.26.915 1.82 2.435 3.488 4.413 4.143 1.53.507 3.291.439 4.864.182 2.949-1.447 4.54-2.928 5.615-6.075 1.242-3.634 1.015-8.346-.719-11.795-.923-1.834-2.738-3.536-4.722-4.157-1.465-.459-2.918-.359-4.435-.287z" class="C"/><path d="M399.985 77.734c9.806-.785 18.685 1.278 26.523 7.368 8.632 6.708 11.998 18.002 13.314 28.401l-16.98-.031c-.858-3.268-2.025-6.428-3.463-9.486-3.185-6.773-7.57-11.45-14.712-14.027l-4.274-.985c-3.26-.483-6.148.885-8.69 2.797-6.975 5.25-9.176 13.166-10.342 21.448l-15.772.121c1.219-7.44 3.64-14.559 8.105-20.703 6.575-9.049 15.465-13.205 26.291-14.903z" class="D"/><path d="M303.669 14.952l1.986-.136c4.526-.144 7.895 2.33 11.025 5.267.416-1.397.41-2.785 1.333-4.005.534-.706 1.474-1.153 2.34-1.263 1.295-.164 2.623.364 3.631 1.141a6.19 6.19 0 0 1 1.108 2.781c.484 3.693.118 7.821.129 11.562.017 6.25.452 12.84-.22 19.039-.469 4.324-.986 8.253-4.623 11.138-4.751 3.768-11.081 3.571-16.754 2.927-3.758-.427-8.165-1.9-10.587-4.986-1.004-1.28-1.353-2.483-1.148-4.086.271-.642.571-1.386 1.084-1.871.717-.678 1.728-1.045 2.715-.981 1.943.126 2.976 1.669 4.153 2.989 1.695 1.901 3.08 3.082 5.734 3.221 2.94.153 6.437.204 8.718-1.959 2.401-2.276 1.985-7.968 2.046-11.087-.714.228-1.729 1.477-2.317 2.016-1.507 1.384-3.007 2.339-4.997 2.867-3.127.829-7.965.348-10.77-1.293-3.615-2.116-5.993-6.619-6.996-10.581-1.291-5.096-.82-11.64 1.936-16.186 2.447-4.036 6.096-5.458 10.474-6.513zm3.578 6.198c-2.65.393-4.019 1.03-5.637 3.206-2.168 2.916-2.56 7.718-2.003 11.233.393 2.477 1.648 4.992 3.728 6.471 1.869 1.329 3.589 1.537 5.819 1.588 2.45-.871 5.072-2.766 6.253-5.163 1.687-3.424 1.311-8.557.017-12.056-.685-1.856-2.639-3.918-4.435-4.732-1.114-.504-2.54-.497-3.742-.546z" class="C"/><path d="M483.515 77.737l3.515-.121c9.006-.232 17.042 1.956 23.714 8.309 8.68 8.266 11.762 18.474 12.037 30.142-.847.424-3.3-.067-4.354-.128l-11.964-.437-.512-2.288c-2.672-9.821-6.7-17.396-15.787-22.573-1.55-.615-2.968-1.114-4.619-1.355-3.299-.482-6.512-.582-9.312 1.522-8.25 6.197-10.332 13.158-11.697 23.069l-15.546-.395c.685-7.512 3.618-15.111 8.18-21.117 6.786-8.934 15.375-13.114 26.345-14.629z" class="D"/><path d="M1.928 79.162l21.984.149c-.948 4.016-1.975 7.996-2.421 12.107-.836 7.696-.476 15.48-.492 23.206-.021 10.473-.347 21.045.654 31.479.416 4.338 1.547 8.527 2.072 12.837l-21.635.067c-.347-.95 1.636-8.865 1.881-10.491.498-3.304.786-6.578.943-9.914l.138-21.578c.056-8.145.533-16.567-.43-24.666-.532-4.474-1.709-8.809-2.695-13.196zm259.648-1.425l.142-.02c8.25-1.103 18.257 1.368 24.855 6.488 10.325 8.013 13.014 18.563 14.571 30.888-5.442-.58-11.512.043-17.015.123-1.142-5.43-2.651-10.646-5.758-15.304-3.636-5.453-8.398-9.376-14.934-10.682l-1.081-.035c-5.098-.081-8.523 1.248-12.205 4.82-6.484 6.291-7.169 15.84-7.276 24.323l-16.475.611c.322-9.35 3.019-18.945 8.693-26.478 6.645-8.823 15.705-13.205 26.483-14.734zm-83.252-.005l2.844-.149c9.765-.125 17.673 1.997 24.821 8.987 9.492 9.28 11.642 20.696 11.786 33.451l-16.396 1.108c-.174-9.472-3.494-19.512-10.312-26.329-4.309-4.309-9.516-5.73-15.436-5.744-2.931.528-4.783 1.262-7.08 3.237-6.319 5.432-9.408 14.42-9.056 22.599.161 3.73.94 7.364.659 11.115-5.084 1.627-11.296 1.85-16.606 2.659-.564-13.386.332-25.746 8.752-36.721 6.575-8.57 15.461-12.825 26.024-14.213z" class="B"/><path d="M351.618 77.708c3.952-.573 7.372.307 11.134 1.398-2.01 5.395-2.896 11.614-3.475 17.316-2.177-1.294-4.41-2.535-6.798-3.402-6.71-2.439-14.948 2.093-20.831 4.841.692 16.234-.965 32.643.925 48.83.482 4.124 1.492 8.203 2.467 12.232l-20.623.028-1.275-.307c-.463-1.175.635-4.233.964-5.51 1.18-4.584 1.607-9.184 1.777-13.902l.022-20.484c-.073-13.387-.306-26.248-2.974-39.429l19.058-.034-.196 14.367 7.897-8.943c1.605-1.763 3.261-3.884 5.362-5.062 2.014-1.13 4.327-1.504 6.566-1.94z" class="D"/><path d="M130.926 45.362c.332-.022.618.187.899.345-.661 5.9-1.836 11.717-2.276 17.647-1.275 17.197-.735 34.541-.715 51.777.011 9.797-.55 20.107.529 29.835.524 4.72 1.788 9.367 2.717 14.018l-21.093-.002-.823-.475c.682-5.084 2.11-10.13 2.532-15.227.885-10.679.33-21.681.318-32.39-.024-20.575 1.185-41.128-3.172-61.388l21.084-4.14z" class="B"/><path d="M680.02 77.727c6.876-.904 12.762 1.41 19.323 2.782l.113 15.817c-4.4-2.86-8.576-6.854-14.097-7.058-3.61-.134-6.86.907-9.505 3.404-1.38 1.303-2.318 3.052-2.351 4.972-.147 8.401 15.042 17.587 20.512 23.353 4.896 5.161 7.426 10.895 7.22 18.092-.148 5.188-2.643 10.472-6.41 14.007-7.029 6.596-15.322 7.5-24.504 7.207-5.043-.287-9.854-1.459-14.787-2.437l-.296-20.469c2.595 2.855 5.546 5.484 8.689 7.723 3.205 2.281 8.027 4.632 12.052 3.911 2.588-.464 5.467-2.182 6.959-4.342 7.466-10.806-13.618-22.004-19.579-28.668-2.806-3.136-5.024-7.218-5.795-11.375-.976-5.268-.01-11.361 3.069-15.773 4.65-6.664 11.645-9.776 19.387-11.145zm-104.861-.017c4.365-.419 8.561-.188 12.533 1.862 6.175 3.188 7.804 9.124 9.72 15.215.878-.392 1.892-1.759 2.566-2.467 5.817-6.113 10.245-12.713 19.186-14.338 4.537-.825 11.034-.56 14.888 2.155 2.921 2.058 5.192 5.111 6.402 8.464 2.611 7.238 2.258 15.679 2.247 23.265l.058 26.542c.281 7.032 1.858 13.839 3.027 20.749l-22.136-.223c1.272-4.771 2.302-9.653 2.786-14.572.8-8.142.431-16.578.398-24.757-.023-5.52.351-11.485-.405-16.952-.231-1.671-.718-3.385-1.449-4.904-1.131-2.35-2.802-3.626-5.291-4.489-7.96-2.761-14.861 1.966-21.709 5.321-.747 3.291-.176 8.074-.185 11.518-.032 12.201-.533 24.652.666 36.798.329 3.332 1.059 6.489 1.994 9.697.167.867.498 1.5-.014 2.257l-21.497.045c1.16-3.765 2.145-7.498 2.591-11.422.994-8.746.626-17.361.601-26.131-.016-5.992.467-12.423-.5-18.343-.245-1.496-.408-3.248-1.065-4.633-1.315-2.773-3.611-4.439-6.482-5.422-6.745-2.309-14.994 2.57-20.922 5.43-.321 1.684-.08 3.768-.06 5.501l.11 10.714c.074 10.166-.625 20.801.363 30.913.444 4.555 1.417 9.05 2.767 13.419l-22.019.026c.709-4.922 1.806-9.699 2.29-14.675.779-7.997.718-16.1.7-24.129-.031-13.816-.298-27.272-3.114-40.856l19.194.035-.048 14.85c4.628-5.283 8.905-11.755 15.504-14.725 1.969-.886 4.202-1.283 6.305-1.737z" class="D"/><path d="M61.539 77.726c5.488-.732 10.828.772 15.821 2.909 1.424.61 3.189 1.612 4.726 1.799 1.956.238 4.331-.11 6.308-.229l16.713-1.55-1.459 12.845-13.243-.397c2.293 5.057 3.438 11.248 2.669 16.771-1.009 7.249-5.047 13.233-10.818 17.587-7.201 5.432-14.735 5.619-23.411 4.43l-1.332 1.089c-1.37 1.337-3.188 3.16-3.21 5.174.311.628.67 1.23 1.208 1.691 2.761 2.368 7.282 2.515 10.705 2.707 4.356.245 8.724.395 13.081.106 5.349-.354 11.365.162 15.569 3.89 3.053 2.706 4.661 6.505 4.894 10.523.441 7.61-1.374 12.623-6.436 18.31-3.738 3.726-9.291 6.195-14.414 7.198-5.998 1.174-12.176 1.246-18.27 1.178-6.825-.076-13.635.329-19.537-3.678-2.15-1.459-3.915-3.774-4.385-6.363-1.096-6.034 7.56-12.739 11.762-16.148.947-.768 2.625-1.669 3.291-2.622-2.938-.429-6.259-.664-9.083-1.608-2.253-.752-4.5-2.459-5.541-4.626-.78-1.624-.675-3.376-.08-5.041 1.999-5.596 10.843-10.759 16.053-13.248l-1.975-1.298c-6.621-4.378-11.461-8.959-13.094-17.064-1.609-7.982-.077-15.905 4.431-22.676 4.348-6.531 11.568-10.154 19.059-11.659zm.289 11.751c-3.668 1.123-6.184 2.484-8.09 6.021-2.12 3.934-1.913 10.214-.636 14.397 1.201 3.935 3.371 7.632 7.108 9.636 2.636 1.414 5.68 2.253 8.607 1.581 3.689-1.347 6.653-3.328 8.364-7.016 2.111-4.548 1.767-10.258.057-14.887-1.277-3.457-3.825-7.338-7.279-8.884-2.495-1.117-5.469-1.184-8.131-.848zm-4.545 65.857c-2.139 2.821-4.787 6.203-4.23 9.973.232 1.569 1.504 3.162 2.765 4.061 4.302 3.07 12.251 3.269 17.262 2.412l4.576-1.119c2.318-1.264 4.768-2.815 5.572-5.481.525-1.743.527-3.786-.371-5.404-1.122-2.022-2.671-3.243-4.908-3.856-2.278-.624-4.805-.481-7.149-.488-4.473-.015-9.06.206-13.517-.098z" class="B"/></svg>