<svg xmlns="http://www.w3.org/2000/svg" width="128px" height="24px" viewBox="0 0 133 24" fill="none" class="h-6 w-32" data-v-512c149d=""><path d="M20.3325 23.6063C18.6281 23.6063 17.0698 22.6291 16.0829 20.9637C15.096 22.6259 13.5377 23.6063 11.8333 23.6063H11.8041C9.94388 23.5933 8.27196 22.4181 7.324 20.4605V20.4475L0 4.86455L9.34004 0.507812L16.0732 14.7825L22.7349 0.507812L32.0717 4.8613L24.8451 20.4638C23.8971 22.4214 22.2252 23.5966 20.365 23.6096H20.3358M18.2321 19.3567C18.7418 20.3729 19.5112 20.954 20.3358 20.954H20.3455C21.1799 20.9475 21.9493 20.3534 22.4492 19.3145L28.5525 6.15015L24.0237 4.03671L17.5503 17.9088L18.2353 19.3567H18.2321ZM9.72312 19.3145C10.2263 20.3534 10.9925 20.9507 11.8236 20.954H11.8366C12.6644 20.954 13.4306 20.3729 13.9435 19.36L14.6155 17.9185L8.06419 4.03346L3.53863 6.14365L9.71988 19.308L9.72312 19.3145Z" fill="white"></path><path d="M86.8774 17.4208C86.5035 17.0467 86.046 16.8596 85.505 16.8596C84.958 16.8596 84.4916 17.0467 84.1057 17.4208C83.7258 17.7909 83.5358 18.2367 83.5358 18.7581C83.5358 19.2874 83.7347 19.7421 84.1325 20.1222C84.5184 20.4963 84.9759 20.6834 85.505 20.6834C86.0281 20.6834 86.4796 20.4934 86.8595 20.1133C87.2394 19.7332 87.4294 19.2814 87.4294 18.7581C87.4294 18.2367 87.2454 17.7909 86.8774 17.4208ZM53.9988 9.06284H51.236V20.3819H53.9988V9.06284ZM77.4435 9.05388V10.3016C76.6001 9.26681 75.4723 8.74941 74.0601 8.74941C72.4987 8.74941 71.1979 9.31756 70.1576 10.4538C69.1134 11.5881 68.5913 13.005 68.5913 14.7045C68.5913 16.4039 69.1134 17.8208 70.1576 18.9551C71.1979 20.0894 72.4987 20.6565 74.0601 20.6565C75.4783 20.6565 76.6061 20.1431 77.4435 19.1163V20.364H80.2331V9.05388H77.4435ZM71.3779 14.7045C71.3779 13.7771 71.6633 13.001 72.2342 12.3762C72.815 11.7354 73.5569 11.415 74.4599 11.415C75.3689 11.415 76.1118 11.7274 76.6886 12.3523C77.2515 12.9692 77.533 13.7533 77.533 14.7045C77.533 15.6617 77.2575 16.4457 76.7065 17.0566C76.1357 17.6815 75.3868 17.9939 74.4599 17.9939C73.539 17.9939 72.7911 17.6725 72.2163 17.0298C71.6574 16.4129 71.3779 15.6378 71.3779 14.7045ZM65.1781 9.13448L62.0603 17.77L58.9515 9.13448L56.2424 10.1136L59.6466 18.7491C60.2095 20.0207 61.0141 20.6565 62.0603 20.6565C63.0986 20.6565 63.9061 20.0207 64.483 18.7491L67.8872 10.1136L65.1781 9.13448ZM46.3371 9.13448L43.2193 17.77L40.1015 9.13448L37.4014 10.1136L40.8056 18.7491C41.3685 20.0207 42.173 20.6565 43.2193 20.6565C44.2635 20.6565 45.0681 20.0207 45.633 18.7491L49.0461 10.1136L46.3371 9.13448ZM52.6174 3.45703C52.1182 3.45703 51.6995 3.62917 51.3613 3.97343C51.0232 4.3177 50.8541 4.73958 50.8541 5.23907C50.8541 5.73856 51.0232 6.15745 51.3613 6.49575C51.7055 6.83405 52.1241 7.0032 52.6174 7.0032C53.1107 7.0032 53.5294 6.83405 53.8735 6.49575C54.2176 6.15745 54.3896 5.73856 54.3896 5.23907C54.3896 4.73958 54.2206 4.3177 53.8824 3.97343C53.5383 3.62917 53.1167 3.45703 52.6174 3.45703ZM97.4212 11.7254C97.4232 11.7274 97.4252 11.7294 97.4272 11.7314C97.8628 11.9364 98.2347 12.218 98.543 12.5762L100.453 10.7732C99.8876 10.1344 99.1726 9.64093 98.3073 9.29268V9.2897H98.3044C97.471 8.95339 96.5898 8.78523 95.6609 8.78523C93.8927 8.78523 92.4556 9.3295 91.3497 10.418C90.2379 11.5125 89.6819 12.9413 89.6819 14.7045C89.6819 16.4497 90.2379 17.8695 91.3497 18.964C92.4437 20.0506 93.8509 20.5938 95.5714 20.5938C97.7315 20.5938 99.3755 19.9222 100.503 18.579L98.6176 16.7522C97.9195 17.5681 97.0045 17.976 95.8728 17.976C94.926 17.976 94.1543 17.6696 93.5575 17.0566C92.9569 16.4477 92.6565 15.6547 92.6565 14.6776C92.6565 13.7005 92.9539 12.9105 93.5486 12.3075C94.1393 11.6946 94.9141 11.3881 95.8728 11.3881C96.4277 11.3881 96.9439 11.5006 97.4212 11.7254ZM111.826 10.421C110.712 9.33049 109.248 8.78523 107.434 8.78523C105.626 8.78523 104.158 9.34044 103.03 10.4509C103.028 10.4509 103.026 10.4528 103.024 10.4568C101.912 11.5493 101.357 12.9563 101.357 14.6776C101.357 16.393 101.924 17.8069 103.06 18.9193C104.202 20.0357 105.66 20.5938 107.434 20.5938C109.212 20.5938 110.664 20.0476 111.79 18.9551C112.918 17.8546 113.482 16.4288 113.482 14.6776C113.482 12.9204 112.93 11.5016 111.826 10.421ZM109.636 12.3105C110.217 12.9234 110.507 13.7125 110.507 14.6776C110.507 15.6368 110.208 16.4298 109.609 17.0566C109.028 17.6696 108.303 17.976 107.434 17.976C106.523 17.976 105.776 17.6606 105.193 17.0298C104.619 16.4069 104.331 15.6228 104.331 14.6776C104.331 13.7244 104.616 12.9433 105.184 12.3344C105.767 11.7036 106.517 11.3881 107.434 11.3881C108.321 11.3881 109.055 11.6956 109.636 12.3105ZM124.852 10.5732C124.842 10.5673 124.835 10.5603 124.831 10.5523C124.167 9.35437 123.043 8.75538 121.46 8.75538C120.817 8.75538 120.206 8.89667 119.625 9.17925C119.02 9.46581 118.493 9.87973 118.043 10.421C118.037 10.427 118.031 10.432 118.023 10.4359C118.013 10.4399 118.004 10.4419 117.996 10.4419H117.978C117.962 10.4419 117.948 10.4359 117.936 10.424C117.924 10.4121 117.918 10.3981 117.918 10.3822V8.92553H114.929V20.4118H117.918V14.6776C117.918 13.6448 118.152 12.8398 118.619 12.2627C119.069 11.6996 119.668 11.418 120.418 11.418C121.134 11.418 121.67 11.6986 122.026 12.2598C122.355 12.7752 122.519 13.5184 122.519 14.4895V20.4118H125.508V14.6776C125.508 13.6567 125.745 12.8518 126.218 12.2627C126.662 11.6996 127.235 11.418 127.937 11.418C129.319 11.412 130.01 12.4359 130.01 14.4895V20.4118H133V13.7493C133 12.0438 132.637 10.7703 131.911 9.92848C131.231 9.14642 130.253 8.75538 128.978 8.75538C128.149 8.75538 127.394 8.90861 126.714 9.21507V9.21806C126.017 9.52054 125.438 9.96828 124.974 10.5613C124.968 10.5673 124.961 10.5722 124.953 10.5762C124.943 10.5802 124.934 10.5822 124.926 10.5822H124.882C124.872 10.5822 124.862 10.5792 124.852 10.5732Z" fill="white"></path></svg>